<svg width="700" height="550" viewBox="0 0 700 550" fill="none" xmlns="http://www.w3.org/2000/svg">
<g filter="url(#filter0_i_1_7391)">
<path d="M382.218 274.724L648.936 132.558L604.138 46.9147L359.785 145.195C353.509 147.738 346.492 147.738 340.216 145.195L95.8617 46.9147L50.9272 132.832L317.657 275L50.9272 417.167L95.8617 503.085L340.216 404.049C346.492 401.505 353.509 401.505 359.785 404.049L604.138 502.605L649.073 416.686L382.218 274.724Z" fill="#E2E8F0"/>
</g>
<mask id="mask0_1_7391" style="mask-type:alpha" maskUnits="userSpaceOnUse" x="50" y="46" width="600" height="458">
<path d="M382.218 274.724L648.936 132.558L604.138 46.9147L359.785 145.195C353.509 147.738 346.492 147.738 340.216 145.195L95.8617 46.9147L50.9272 132.832L317.657 275L50.9272 417.167L95.8617 503.085L340.216 404.049C346.492 401.505 353.509 401.505 359.785 404.049L604.138 502.605L649.073 416.686L382.218 274.724Z" fill="#E2E8F0"/>
</mask>
<g mask="url(#mask0_1_7391)">
<g opacity="0.6">
<path d="M142.31 236.05L167.31 236.05C169.87 236.05 171.95 238.13 171.95 240.69L171.95 254.2C171.95 256.76 169.87 258.84 167.31 258.84L142.31 258.84C139.75 258.84 137.67 256.76 137.67 254.2L137.67 240.69C137.67 238.13 139.75 236.05 142.31 236.05ZM167.31 256.55C168.61 256.55 169.66 255.49 169.66 254.2L169.66 240.69C169.66 239.39 168.61 238.34 167.31 238.34L142.31 238.34C141.01 238.34 139.96 239.39 139.96 240.69L139.96 254.2C139.96 255.5 141.02 256.55 142.31 256.55L167.31 256.55Z" fill="#CDD6E3"/>
<path d="M143.76 239.35L165.88 239.35C167.74 239.35 169.26 240.86 169.26 242.73L169.26 252.15C169.26 254.01 167.75 255.53 165.88 255.53L143.76 255.53C141.9 255.53 140.38 254.02 140.38 252.15L140.38 242.73C140.38 240.87 141.89 239.35 143.76 239.35ZM165.88 253.24C166.48 253.24 166.97 252.75 166.97 252.15L166.97 242.73C166.97 242.13 166.48 241.64 165.88 241.64L143.76 241.64C143.16 241.64 142.67 242.13 142.67 242.73L142.67 252.15C142.67 252.75 143.16 253.24 143.76 253.24L165.88 253.24Z" fill="#CDD6E3"/>
<path d="M146.15 262.46C145.38 262.46 144.75 261.84 144.75 261.06L144.75 257.68L147.54 257.68L147.54 261.06C147.54 261.83 146.92 262.46 146.14 262.46L146.15 262.46Z" fill="#CDD6E3"/>
<path d="M151.93 262.46C151.16 262.46 150.53 261.84 150.53 261.06L150.53 257.68L153.32 257.68L153.32 261.06C153.32 261.83 152.7 262.46 151.92 262.46L151.93 262.46Z" fill="#CDD6E3"/>
<path d="M157.7 262.46C156.93 262.46 156.3 261.84 156.3 261.06L156.3 257.68L159.09 257.68L159.09 261.06C159.09 261.83 158.47 262.46 157.69 262.46L157.7 262.46Z" fill="#CDD6E3"/>
<path d="M163.48 262.46C162.71 262.46 162.08 261.84 162.08 261.06L162.08 257.68L164.87 257.68L164.87 261.06C164.87 261.83 164.25 262.46 163.47 262.46L163.48 262.46Z" fill="#CDD6E3"/>
<path d="M163.48 232.42C164.25 232.42 164.88 233.04 164.88 233.82L164.88 237.2L162.09 237.2L162.09 233.82C162.09 233.05 162.71 232.42 163.49 232.42L163.48 232.42Z" fill="#CDD6E3"/>
<path d="M157.7 232.42C158.47 232.42 159.1 233.04 159.1 233.82L159.1 237.2L156.31 237.2L156.31 233.82C156.31 233.05 156.93 232.42 157.71 232.42L157.7 232.42Z" fill="#CDD6E3"/>
<path d="M151.93 232.42C152.7 232.42 153.33 233.04 153.33 233.82L153.33 237.2L150.54 237.2L150.54 233.82C150.54 233.05 151.16 232.42 151.94 232.42L151.93 232.42Z" fill="#CDD6E3"/>
<path d="M146.15 232.42C146.92 232.42 147.55 233.04 147.55 233.82L147.55 237.2L144.76 237.2L144.76 233.82C144.76 233.05 145.38 232.42 146.16 232.42L146.15 232.42Z" fill="#CDD6E3"/>
<path d="M134.04 244.5C134.04 243.73 134.66 243.1 135.44 243.1L138.82 243.1L138.82 245.89L135.44 245.89C134.67 245.89 134.04 245.27 134.04 244.49L134.04 244.5Z" fill="#CDD6E3"/>
<path d="M134.04 250.27C134.04 249.5 134.66 248.87 135.44 248.87L138.82 248.87L138.82 251.66L135.44 251.66C134.67 251.66 134.04 251.04 134.04 250.26L134.04 250.27Z" fill="#CDD6E3"/>
<path d="M175.58 250.27C175.58 251.04 174.96 251.67 174.18 251.67L170.8 251.67L170.8 248.88L174.18 248.88C174.95 248.88 175.58 249.5 175.58 250.28L175.58 250.27Z" fill="#CDD6E3"/>
<path d="M170.8 245.89L170.8 243.1L174.18 243.1C174.95 243.1 175.58 243.73 175.58 244.5C175.58 245.27 174.95 245.9 174.18 245.9L170.8 245.9L170.8 245.89Z" fill="#CDD6E3"/>
</g>
</g>
<defs>
<filter id="filter0_i_1_7391" x="50.9272" y="46.9147" width="598.146" height="460.171" filterUnits="userSpaceOnUse" color-interpolation-filters="sRGB">
<feFlood flood-opacity="0" result="BackgroundImageFix"/>
<feBlend mode="normal" in="SourceGraphic" in2="BackgroundImageFix" result="Shape"/>
<feColorMatrix in="SourceAlpha" type="matrix" values="0 0 0 0 0 0 0 0 0 0 0 0 0 0 0 0 0 0 127 0" result="hardAlpha"/>
<feOffset dy="4"/>
<feGaussianBlur stdDeviation="2"/>
<feComposite in2="hardAlpha" operator="arithmetic" k2="-1" k3="1"/>
<feColorMatrix type="matrix" values="0 0 0 0 0 0 0 0 0 0 0 0 0 0 0 0 0 0 0.25 0"/>
<feBlend mode="normal" in2="Shape" result="effect1_innerShadow_1_7391"/>
</filter>
</defs>
</svg> 